<?xml version="1.0" encoding="UTF-8" standalone="no"?>
<svg
   xmlns:dc="http://purl.org/dc/elements/1.1/"
   xmlns:cc="http://creativecommons.org/ns#"
   xmlns:rdf="http://www.w3.org/1999/02/22-rdf-syntax-ns#"
   xmlns:svg="http://www.w3.org/2000/svg"
   xmlns="http://www.w3.org/2000/svg"
   viewBox="0 0 346.66666 346.66666"
   height="346.66666"
   width="346.66666"
   xml:space="preserve"
   id="svg2"
   version="1.1"><metadata
     id="metadata8"><rdf:RDF><cc:Work
         rdf:about=""><dc:format>image/svg+xml</dc:format><dc:type
           rdf:resource="http://purl.org/dc/dcmitype/StillImage" /></cc:Work></rdf:RDF></metadata><defs
     id="defs6" /><g
     transform="matrix(1.3333333,0,0,-1.3333333,0,346.66667)"
     id="g10"><g
       transform="scale(0.1)"
       id="g12"><path
         id="path14"
         style="fill:#2f4f90;fill-opacity:1;fill-rule:nonzero;stroke:none"
         d="M 2600,1300 C 2600,582.031 2017.97,0 1300,0 582.027,0 0,582.031 0,1300 c 0,717.97 582.027,1300 1300,1300 717.97,0 1300,-582.03 1300,-1300" /><path
         id="path16"
         style="fill:#ffffff;fill-opacity:1;fill-rule:nonzero;stroke:none"
         d="m 1228.14,1312.44 c -52.8,-226.06 -302.117,-361.088 -556.874,-301.6 -254.75,59.5 -418.465,291 -365.668,517.06 52.797,226.07 302.117,361.09 556.871,301.59 C 1117.22,1770 1280.93,1538.5 1228.14,1312.44 Z m -337.886,636.04 c -328.809,76.8 -650.598,-97.48 -718.75,-389.26 -51.848,-222.01 58.082,-448.07 258.457,-577.322 14.254,-9.187 -26.82,-81.25 -75.066,-128.859 -45.637,-45.027 -98.711,-65.848 -82.868,-70.551 135.961,-40.316 327.453,119.641 371.45,109.371 328.808,-76.8 650.603,97.481 718.753,389.271 68.14,291.77 -143.17,590.56 -471.976,667.35" /><path
         id="path18"
         style="fill:#ffffff;fill-opacity:1;fill-rule:nonzero;stroke:none"
         d="m 1798.34,1657.27 c 260.71,21.61 487.6,-148.44 506.77,-379.79 19.17,-231.35 -176.64,-436.41 -437.35,-458.019 -260.72,-21.609 -487.61,148.43 -506.78,379.789 -19.17,231.36 176.64,436.42 437.36,458.02 z m -574.59,-469.39 c 24.74,-298.61 317.59,-518.071 654.09,-490.189 20.17,-2.472 42.87,-0.742 65.9,3.399 71.78,12.89 209.27,-159.66 320.64,-115.86 -98.26,57.43 -115.74,194.809 -100.24,205.391 48.1,32.809 117.93,86.711 135.06,104.981 99.86,106.488 155.36,245.728 143.14,393.248 -24.74,298.61 -317.59,518.08 -654.1,490.2 -336.5,-27.89 -589.23,-292.56 -564.49,-591.17" /><path
         id="path20"
         style="fill:#ed3238;fill-opacity:1;fill-rule:nonzero;stroke:none"
         d="m 1360.98,1199.25 c 19.17,-231.359 246.06,-401.398 506.78,-379.789 260.71,21.609 456.52,226.669 437.35,458.019 -19.17,231.35 -246.06,401.4 -506.77,379.79 -260.72,-21.6 -456.53,-226.66 -437.36,-458.02" /><path
         id="path22"
         style="fill:#100f0d;fill-opacity:1;fill-rule:nonzero;stroke:none"
         d="m 1842.75,1644.11 c -14.27,0 -28.67,-0.58 -43.17,-1.79 -252.06,-20.88 -442.11,-219.09 -423.65,-441.83 8.91,-107.56 64.62,-204.861 156.85,-273.99 92.79,-69.531 211.3,-102.211 333.74,-92.078 122.43,10.137 233.95,61.898 314.02,145.758 79.6,83.36 118.53,188.5 109.62,296.06 -17.39,209.92 -213.88,367.87 -447.41,367.87 z m -19.9,-841.508 c -113.18,0 -221.14,34.757 -308.05,99.886 -99.2,74.34 -159.14,179.292 -168.77,295.522 -19.83,239.23 182.53,451.96 451.07,474.21 268.56,22.31 503.14,-154.28 522.96,-393.5 9.63,-116.23 -32.22,-229.61 -117.82,-319.259 C 2117.09,870.289 1998.75,815.27 1869,804.512 c -15.45,-1.282 -30.85,-1.91 -46.15,-1.91" /><path
         id="path24"
         style="fill:#100f0d;fill-opacity:1;fill-rule:nonzero;stroke:none"
         d="m 319.855,760.91 c -17.808,0 -35.257,2.199 -52.089,7.192 -10.899,3.226 -13.02,11.777 -13.403,14.32 -1.953,12.75 8.235,19.598 28.535,33.238 16.887,11.352 40.024,26.899 61.457,48.051 40.399,39.871 70.25,91.898 73.243,108.328 C 207.43,1109.81 105.156,1341.09 156.902,1562.63 226.824,1862 557.324,2041.65 893.668,1963.09 1112.36,1912.02 1291,1759.42 1359.86,1564.85 l -28.28,-10.01 c -65.48,185.02 -235.89,330.27 -444.736,379.04 -320.215,74.8 -634.571,-94.81 -700.735,-378.08 -49.164,-210.51 49.743,-430.84 251.985,-561.3 5.437,-3.5 8.836,-9.359 9.574,-16.488 2.93,-28.313 -41.008,-94.961 -82.238,-135.641 -22.668,-22.383 -47.266,-39.141 -64.114,-50.473 77.977,-8.628 171.879,40.18 242.317,76.743 54.09,28.07 83.242,42.449 103.258,37.828 155.429,-36.321 314.047,-16.778 446.569,55 131.93,71.441 222.19,186.181 254.16,323.061 l 29.22,-6.81 C 1342.88,1132.36 1247.32,1010.68 1107.75,935.078 968.758,859.82 802.664,839.289 640.066,877.25 629.949,879.68 589.734,858.762 557.453,842.012 489.605,806.801 401.172,760.922 319.855,760.91" /><path
         id="path26"
         style="fill:#100f0d;fill-opacity:1;fill-rule:nonzero;stroke:none"
         d="m 2225.22,565.441 c -79.29,0 -152.71,51.411 -208.59,90.539 -25.14,17.61 -56.54,39.481 -65.95,37.7 -5.83,-0.918 -12.07,-2.039 -18.75,-3.219 -17.07,-3.039 -36.42,-6.481 -52.95,-7.731 -287.48,-23.742 -550.8,128.7 -640.59,370.88 l -0.41,1.05 0.03,0.01 c -0.4,0.93 -0.7,1.8 -0.96,2.54 l -3.11,9.02 6.85,6.64 c 0.65,0.64 67.97,67.94 110.2,227.12 l 29,-7.69 c -37.07,-139.7 -92.19,-211.63 -111.46,-233.61 87.03,-226.518 336.16,-368.588 608.07,-346.049 15.14,1.14 33.7,4.437 50.08,7.347 6.9,1.231 13.33,2.383 18.89,3.242 21.56,4.149 48.06,-14.531 88.27,-42.679 54.84,-38.403 127.81,-89.531 201.72,-84.711 -16.36,12.051 -40.24,29.859 -61.95,53.199 -33.23,35.723 -40,82.93 -35.26,115.223 1.64,11.16 6.23,30.867 18.63,38.636 46.35,31.743 114.95,85.543 131.27,102.961 101.18,107.891 150.6,243.471 139.13,381.751 -11.6,140.09 -84.11,266.79 -204.18,356.77 -120.6,90.38 -274.64,132.88 -433.72,119.72 -244.51,-20.26 -450.45,-167.98 -524.64,-376.33 -7.61,-21.34 -13.74,-43.29 -18.22,-65.26 l -29.39,6 c 4.76,23.34 11.27,46.67 19.34,69.33 78.15,219.42 294.2,374.92 550.43,396.15 166.4,13.85 327.71,-30.81 454.2,-125.6 127.02,-95.2 203.76,-229.55 216.09,-378.3 12.16,-146.85 -40.09,-290.59 -147.15,-404.758 -18.12,-19.32 -87.02,-73.531 -136.54,-107.41 l -0.04,-0.043 c -8.06,-9.738 -15.76,-67.809 22.03,-108.418 20.51,-22.051 42.96,-38.57 59.35,-50.633 19.69,-14.488 29.57,-21.769 27.08,-34.406 -0.5,-2.531 -2.98,-10.981 -14,-13.742 -14.41,-3.621 -28.7,-5.239 -42.8,-5.239" /><path
         id="path28"
         style="fill:#b0e4ea;fill-opacity:1;fill-rule:nonzero;stroke:none"
         d="m 1228.14,1312.44 c -52.8,-226.06 -302.117,-361.088 -556.874,-301.6 -254.75,59.5 -418.465,291 -365.668,517.06 52.797,226.06 302.117,361.09 556.871,301.59 C 1117.22,1770 1280.93,1538.5 1228.14,1312.44" /><path
         id="path30"
         style="fill:#100f0d;fill-opacity:1;fill-rule:nonzero;stroke:none"
         d="m 741.953,1828.49 c -201.66,0 -379.047,-121.17 -421.75,-304 -50.832,-217.64 108.188,-441.52 354.477,-499.04 246.289,-57.52 488.02,72.75 538.85,290.4 l 14.61,-3.41 -14.61,3.41 c 24.55,105.1 1.41,214.81 -65.14,308.92 -66.95,94.66 -169.702,162.18 -289.335,190.12 -39.399,9.2 -78.696,13.6 -117.102,13.6 z M 791.68,981.859 c -40.633,0 -82.168,4.653 -123.828,14.371 -262.395,61.29 -431.454,301.33 -376.864,535.09 54.598,233.75 312.485,374.06 574.891,312.79 126.785,-29.62 235.811,-101.36 307.001,-202.02 71.57,-101.21 96.39,-219.5 69.87,-333.06 C 1196.82,1112.38 1007,981.859 791.68,981.859" /><path
         id="path32"
         style="fill:#100f0d;fill-opacity:1;fill-rule:nonzero;stroke:none"
         d="m 577.574,1425.43 c 0,-27.61 -22.383,-50 -49.996,-50 -27.617,0 -50,22.39 -50,50 0,27.61 22.383,50 50,50 27.613,0 49.996,-22.39 49.996,-50" /><path
         id="path34"
         style="fill:#100f0d;fill-opacity:1;fill-rule:nonzero;stroke:none"
         d="m 815.566,1425.43 c 0,-27.61 -22.386,-50 -50,-50 -27.609,0 -50,22.39 -50,50 0,27.61 22.391,50 50,50 27.614,0 50,-22.39 50,-50" /><path
         id="path36"
         style="fill:#100f0d;fill-opacity:1;fill-rule:nonzero;stroke:none"
         d="m 1056.15,1425.43 c 0,-27.61 -22.38,-50 -49.99,-50 -27.617,0 -50,22.39 -50,50 0,27.61 22.383,50 50,50 27.61,0 49.99,-22.39 49.99,-50" /><path
         id="path38"
         style="fill:#ffffff;fill-opacity:1;fill-rule:nonzero;stroke:none"
         d="m 1641.01,1238.36 c 0,-27.61 -22.39,-50 -50,-50 -27.62,0 -50,22.39 -50,50 0,27.62 22.38,50 50,50 27.61,0 50,-22.38 50,-50" /><path
         id="path40"
         style="fill:#ffffff;fill-opacity:1;fill-rule:nonzero;stroke:none"
         d="m 1879,1238.36 c 0,-27.61 -22.39,-50 -50,-50 -27.61,0 -50,22.39 -50,50 0,27.62 22.39,50 50,50 27.61,0 50,-22.38 50,-50" /><path
         id="path42"
         style="fill:#ffffff;fill-opacity:1;fill-rule:nonzero;stroke:none"
         d="m 2119.59,1238.36 c 0,-27.61 -22.39,-50 -50,-50 -27.62,0 -50,22.39 -50,50 0,27.62 22.38,50 50,50 27.61,0 50,-22.38 50,-50" /></g></g></svg>