<svg id="Capa_1" enable-background="new 0 0 170.571 170.571" height="512" viewBox="0 0 170.571 170.571" width="512" xmlns="http://www.w3.org/2000/svg"><g><g><path d="m66.333 75.81h-56.857c-5.224 0-9.476-4.253-9.476-9.477v-56.857c0-5.224 4.252-9.476 9.476-9.476h56.857c5.224 0 9.476 4.252 9.476 9.476v56.857c.001 5.224-4.252 9.477-9.476 9.477zm-56.857-66.334v56.857h56.857v-56.857zm0-4.738-.009 4.738h.009z"/></g><g><path d="m161.095 75.81h-56.857c-5.229 0-9.476-4.252-9.476-9.476v-56.858c0-5.224 4.248-9.476 9.476-9.476h56.857c5.229 0 9.476 4.252 9.476 9.476v56.857c0 5.224-4.247 9.477-9.476 9.477zm-56.857-66.334v56.857h56.857v-56.857zm0-4.738-.009 4.738h.009z"/></g><g><path d="m161.095 170.571h-56.857c-5.229 0-9.476-4.248-9.476-9.476v-56.857c0-5.229 4.248-9.476 9.476-9.476h56.857c5.229 0 9.476 4.248 9.476 9.476v56.857c0 5.229-4.247 9.476-9.476 9.476zm-56.857-66.333v56.857h56.857v-56.857zm0-4.738-.009 4.738h.009z"/></g><g><path d="m66.333 170.571h-56.857c-5.224 0-9.476-4.248-9.476-9.476v-56.857c0-5.229 4.252-9.476 9.476-9.476h56.857c5.224 0 9.476 4.248 9.476 9.476v56.857c.001 5.229-4.252 9.476-9.476 9.476zm-56.857-66.333v56.857h56.857v-56.857zm0-4.738-.009 4.738h.009z"/></g></g></svg>