<?xml version="1.0" standalone="no"?>
<!DOCTYPE svg PUBLIC "-//W3C//DTD SVG 20010904//EN"
 "http://www.w3.org/TR/2001/REC-SVG-20010904/DTD/svg10.dtd">
<svg version="1.0" xmlns="http://www.w3.org/2000/svg"
 width="1275.000000pt" height="1275.000000pt" viewBox="0 0 1275.000000 1275.000000"
 preserveAspectRatio="xMidYMid meet">
<metadata>
Created by potrace 1.11, written by Peter Selinger 2001-2013
</metadata>
<g transform="translate(0.000000,1275.000000) scale(0.100000,-0.100000)"
fill="#000000" stroke="none">
<path d="M2307 12744 c-1 -1 -45 -4 -97 -8 -124 -7 -161 -13 -305 -42 -159
-33 -147 -29 -255 -65 -458 -150 -819 -403 -1148 -805 -141 -171 -324 -524
-390 -749 -24 -82 -53 -191 -57 -220 -7 -40 -26 -151 -31 -175 -2 -14 -7 -68
-11 -120 -9 -122 -9 -8246 0 -8361 38 -481 210 -918 515 -1304 90 -113 298
-314 422 -406 105 -78 224 -159 235 -159 2 0 30 -15 63 -34 150 -89 456 -203
622 -232 14 -3 41 -9 60 -14 19 -5 58 -11 85 -15 28 -3 65 -7 83 -10 18 -2 67
-7 110 -11 99 -9 8186 -9 8312 0 272 19 514 75 750 171 73 30 271 130 310 156
14 9 64 42 111 73 247 160 481 396 660 666 103 154 255 474 283 595 2 6 10 35
19 65 15 46 49 213 74 355 10 58 13 8439 3 8510 -5 33 -11 83 -15 110 -3 28
-15 92 -25 144 -177 849 -828 1552 -1660 1790 -114 32 -239 60 -310 67 -25 3
-51 7 -59 10 -7 2 -62 7 -122 10 -87 5 -8226 12 -8232 8z"/>
</g>
</svg>
